<svg width="464" height="82pt" viewBox="0 0 348 82" xmlns="http://www.w3.org/2000/svg"><g fill="#fe0"><path d="M11.73 18.74c3.89-4.23 9.53-6.87 15.29-7.05 103.63-.03 207.26.06 310.89-.05-9.43 16.65-20.6 32.29-30.09 48.91 5.25.11 10.51-.14 15.75.3-.1 3.75-.09 7.51 0 11.27-12.21.42-24.46.36-36.67.03 2.47-5.36 6.15-10.01 9.13-15.08 5.81-9.19 11.36-18.55 17.43-27.57 1.28-1.96 2.41-4.01 3.52-6.07-96.35-.04-192.71-.01-289.06-.01-6.32-.64-11.94 6.38-9.57 12.37 1.07 4.17 5.66 6.17 9.61 6.48 5.36.27 10.73-.07 16.09.07 9.35-.27 16.8 10.58 13.5 19.27-1.48 5.78-6.93 9.9-12.68 10.7-5.84.25-11.68-.1-17.52.16-.06-3.99-.06-7.98 0-11.98 5.55.05 11.11.33 16.65-.07 2.57-.19 2.5-3.18 2.83-5.07-1.55-.69-3.04-1.73-4.79-1.73-6.27-.27-12.57.33-18.83-.26-6.42-1.29-12.2-5.73-14.94-11.71-3.61-7.41-2.17-16.89 3.46-22.91z"/><path d="M63.47 30.36c3.88-.03 7.76-.03 11.65-.05.57 9.14-.18 18.32.38 27.46.92 5.26 10.07 5.33 10.91-.01.42-9.08-.02-18.19.19-27.28 3.89-.19 7.79-.19 11.69.01.04 8.19.07 16.37.02 24.56-.25 4.76-1.13 10.05-4.81 13.44-6.94 6.74-19.72 6.6-25.94-1.05-2.79-3.47-4.2-7.94-4.03-12.38-.03-8.23.11-16.46-.06-24.7zM105.38 30.34c6.55.04 13.11-.11 19.66.05 5.96.02 12.29 3.25 14.62 8.96 3.33 7.13 2.06 16.91-4.6 21.7-5.07 3.69-11.65 3.64-17.64 3.5-.43 2.52-.75 5.07-.81 7.63-3.74.27-7.5.27-11.24-.05.09-13.93.07-27.86.01-41.79m11.28 11.28c.05 3.9.05 7.8.03 11.7 2.91-.01 5.85.29 8.74-.17 4.93-1.58 5.04-9.85.03-11.38-2.91-.45-5.87-.15-8.8-.15zM147.59 30.41c9.92-.13 19.86-.14 29.79.01-.23 3.88.16 7.79-.31 11.65-5.85.51-11.74-.02-17.6.25.01 1.03.04 3.08.05 4.11 3.74-.01 7.47.02 11.21-.03 0 3.33-.01 6.66-.1 9.99-3.72-.18-7.44-.14-11.15-.07 0 1.06.02 3.18.02 4.23 5.73.01 11.45.12 17.17-.05.07 3.99.07 7.98.02 11.97-9.67-.23-19.34.01-29-.14-.04-13.97.16-27.95-.1-41.92zM184.59 30.41c6.8-.11 13.6-.16 20.4.01 5.51.04 11.44 2.52 14.06 7.63 2.18 3.59 1.53 7.98 1.52 11.97-.02 4.49-3.32 7.9-6.16 10.99 2.15 3.71 4.53 7.3 6.25 11.24-4.18.06-8.4.39-12.57-.07-2.83-2.13-3.55-5.95-5.67-8.68-1.97-.36-3.99-.26-5.99-.31.08 3.11.05 6.23-.32 9.33-3.8-.17-7.61-.17-11.41-.19-.05-13.97.16-27.95-.11-41.92m11.98 11.22c-.1 3.25-.12 6.5-.06 9.75 3.13.03 6.28.26 9.41-.09 3.35-.75 2.63-4.65 2.44-7.21-2.26-4.11-7.98-2.01-11.79-2.45zM223.99 30.39c4.16-.1 8.32-.09 12.49 0 1.96 6.55 4.25 13 6.19 19.56 2.49-6.42 4.41-13.04 6.53-19.59 3.96-.03 7.91-.04 11.87-.03-1.14 6.3-3.89 12.12-5.78 18.2-2.48 7.82-6.07 15.28-7.95 23.29-2.67.52-5.48.97-8.14.24-2.02-2.21-2.3-5.49-3.4-8.21-4.06-11.1-8.28-22.18-11.81-33.46zM268.39 30.41c3.7-.06 7.41-.06 11.11.02.04 13.97.16 27.94-.06 41.91-3.67.03-7.33.02-10.99 0-.25-13.97-.15-27.95-.06-41.93z"/></g></svg>
